<?xml version="1.0" standalone="no"?><!-- Generator: Gravit.io --><svg xmlns="http://www.w3.org/2000/svg" xmlns:xlink="http://www.w3.org/1999/xlink" style="isolation:isolate" viewBox="0 0 24 24" width="24" height="24"><defs><clipPath id="_clipPath_euJB4BMMfX3TRJ8NUdzO9FqWe7VV45wp"><rect width="24" height="24"/></clipPath></defs><g clip-path="url(#_clipPath_euJB4BMMfX3TRJ8NUdzO9FqWe7VV45wp)"><path d=" M 0 0 L 24 0 L 24 24 L 0 24 L 0 0 Z " fill="none"/><path d=" M 12 8 C 13.1 8 14 7.1 14 6 C 14 4.9 13.1 4 12 4 C 10.9 4 10 4.9 10 6 C 10 7.1 10.9 8 12 8 Z  M 12 10 C 10.9 10 10 10.9 10 12 C 10 13.1 10.9 14 12 14 C 13.1 14 14 13.1 14 12 C 14 10.9 13.1 10 12 10 Z  M 12 16 C 10.9 16 10 16.9 10 18 C 10 19.1 10.9 20 12 20 C 13.1 20 14 19.1 14 18 C 14 16.9 13.1 16 12 16 Z " fill="rgb(255,255,255)"/></g></svg>